<svg width="20" height="20" viewBox="0 0 20 20" xmlns="http://www.w3.org/2000/svg"><title>filter</title><path d="M0 4h3v1H0V4zm8 0h12v1H8V4zM0 14h3v1H0v-1zm8 0h12v1H8v-1zM0 9h12v1H0V9zm17 0h3v1h-3V9zM5.5 6a1.5 1.5 0 1 0 0-3 1.5 1.5 0 0 0 0 3zm0 .9C4.12 6.9 3 5.803 3 4.45 3 3.097 4.12 2 5.5 2S8 3.097 8 4.45C8 5.803 6.88 6.9 5.5 6.9zm0 9.1a1.5 1.5 0 1 0 0-3 1.5 1.5 0 0 0 0 3zm0 .9c-1.38 0-2.5-1.097-2.5-2.45C3 13.097 4.12 12 5.5 12S8 13.097 8 14.45c0 1.353-1.12 2.45-2.5 2.45zm9-5.9a1.5 1.5 0 1 0 0-3 1.5 1.5 0 0 0 0 3zm0 .9c-1.38 0-2.5-1.097-2.5-2.45C12 8.097 13.12 7 14.5 7S17 8.097 17 9.45c0 1.353-1.12 2.45-2.5 2.45z" fill="#666" fill-rule="evenodd"/></svg>